<?xml version="1.0" standalone="no"?>
<!DOCTYPE svg PUBLIC "-//W3C//DTD SVG 1.1//EN" "http://www.w3.org/Graphics/SVG/1.1/DTD/svg11.dtd" >
<svg xmlns="http://www.w3.org/2000/svg">
<metadata>
Created by FontForge 20120731 at Tue Sep 20 12:23:00 2016
 By admin
</metadata>
<defs>
<font id="iconfont" horiz-adv-x="1024" >
  <font-face 
    font-family="iconfont"
    font-weight="500"
    font-stretch="normal"
    units-per-em="1024"
    panose-1="2 0 6 3 0 0 0 0 0 0"
    ascent="896"
    descent="-128"
    x-height="792"
    bbox="0 -224 1024 880"
    underline-thickness="50"
    underline-position="-100"
    unicode-range="U+0078-E613"
  />
<missing-glyph horiz-adv-x="374" 
d="M34 0v682h272v-682h-272zM68 34h204v614h-204v-614z" />
    <glyph glyph-name=".notdef" horiz-adv-x="374" 
d="M34 0v682h272v-682h-272zM68 34h204v614h-204v-614z" />
    <glyph glyph-name=".null" horiz-adv-x="0" 
 />
    <glyph glyph-name="nonmarkingreturn" horiz-adv-x="341" 
 />
    <glyph glyph-name="x" unicode="x" horiz-adv-x="1001" 
d="M281 543q-27 -1 -53 -1h-83q-18 0 -36.5 -6t-32.5 -18.5t-23 -32t-9 -45.5v-76h912v41q0 16 -0.5 30t-0.5 18q0 13 -5 29t-17 29.5t-31.5 22.5t-49.5 9h-133v-97h-438v97zM955 310v-52q0 -23 0.5 -52t0.5 -58t-10.5 -47.5t-26 -30t-33 -16t-31.5 -4.5q-14 -1 -29.5 -0.5
t-29.5 0.5h-32l-45 128h-439l-44 -128h-29h-34q-20 0 -45 1q-25 0 -41 9.5t-25.5 23t-13.5 29.5t-4 30v167h911zM163 247q-12 0 -21 -8.5t-9 -21.5t9 -21.5t21 -8.5q13 0 22 8.5t9 21.5t-9 21.5t-22 8.5zM316 123q-8 -26 -14 -48q-5 -19 -10.5 -37t-7.5 -25t-3 -15t1 -14.5
t9.5 -10.5t21.5 -4h37h67h81h80h64h36q23 0 34 12t2 38q-5 13 -9.5 30.5t-9.5 34.5q-5 19 -11 39h-368zM336 498v228q0 11 2.5 23t10 21.5t20.5 15.5t34 6h188q31 0 51.5 -14.5t20.5 -52.5v-227h-327z" />
    <glyph glyph-name="uniE600" unicode="&#xe600;" 
d="M511 -61q-20 0 -34 14t-14 34v796q0 21 14 35t34 14t34.5 -14t14.5 -35v-796q0 -20 -14.5 -34t-34.5 -14zM63 385q0 20 14 34t34 14h800q20 0 34 -14t14 -34t-14 -34.5t-34 -14.5h-800q-20 0 -34 14.5t-14 34.5z" />
    <glyph glyph-name="uniE601" unicode="&#xe601;" 
d="M870 467h-102v46v2q0 11 -7.5 18.5t-18 7.5t-18 -7.5t-7.5 -18.5v-2v-46h-409v46v2q0 11 -7.5 18.5t-18.5 7.5t-18.5 -7.5t-7.5 -18.5q0 -1 1 -2h-1v-46h-102q-32 0 -54.5 -22.5t-22.5 -53.5v-461q0 -32 22.5 -54.5t54.5 -22.5h716q32 0 54.5 22.5t22.5 54.5v461
q0 31 -22.5 53.5t-54.5 22.5zM870 416q11 0 18.5 -7.5t7.5 -17.5v-81h-128v106h102zM717 416v-106h-409v106h409zM154 416h102v-106h-128v81q0 10 7.5 17.5t18.5 7.5zM870 -95h-716q-11 0 -18.5 7.5t-7.5 17.5v329h768v-329q0 -10 -7.5 -17.5t-18.5 -7.5z" />
    <glyph glyph-name="uniE602" unicode="&#xe602;" 
d="M211 40q-17 0 -29.5 12t-12.5 29v462h84q35 0 59.5 24.5t24.5 58.5v84h377q18 0 30 -12t12 -30v-50q43 -9 84 -27v119q0 35 -24.5 59.5t-59.5 24.5h-502l-169 -171v-584q0 -34 24.5 -58.5t59.5 -24.5h168q-30 40 -49 83zM630.5 543q-121.5 0 -207.5 -86t-86 -208
q0 -73 34 -136.5t92 -103.5v-221l167 84l168 -84v221q58 40 92 103.5t34 136.5q0 122 -86 208t-207.5 86zM630.5 40q-86.5 0 -148 61t-61.5 148t61.5 148.5t148 61.5t148 -61.5t61.5 -148.5t-61.5 -148t-148 -61z" />
    <glyph glyph-name="uniE603" unicode="&#xe603;" 
d="M675 329h-127v127q0 15 -10.5 25.5t-25.5 10.5t-26 -10.5t-11 -25.5v-127h-127q-15 0 -25.5 -11t-10.5 -26t10.5 -25.5t25.5 -10.5h127v-127q0 -15 11 -26t26 -11t25.5 11t10.5 26v127h127q15 0 25.5 10.5t10.5 25.5t-10.5 26t-25.5 11zM511 747q-92 0 -176 -36t-145 -97
t-97 -145t-36 -176.5t36 -176.5t97 -144.5t145 -96.5t176.5 -36t176.5 36t144.5 96.5t96.5 144.5t36 176.5t-36 176.5t-96.5 145t-144.5 97t-177 36zM511 -105q-107 0 -198.5 53.5t-145 145t-53.5 199t53.5 199t145 145t199 53.5t199 -53.5t145 -145t53.5 -199t-53.5 -199
t-145 -145t-199.5 -53.5zM511 -105z" />
    <glyph glyph-name="uniE604" unicode="&#xe604;" 
d="M586 313l-18 47q48 19 77 62q30 45 30 99q0 72 -49 122.5t-118.5 50.5t-118.5 -50.5t-49 -122.5q0 -52 28 -95.5t74 -64.5l-18 -46q-60 27 -96 83t-36 123q0 92 63 157.5t152 65.5t152.5 -65.5t63.5 -157.5q0 -70 -39 -127q-37 -56 -98 -81zM748 207q-30 25 -93 58.5
t-115 53.5l28 40q60 -23 120 -53.5t92 -58.5zM693 -145h-2h-441q-71 6 -105 51q-29 38 -26 85q-3 90 47 168q39 60 108 110q34 24 76 47t65 33.5t27 11.5l49 -42q-6 -2 -34 -13t-77.5 -35.5t-80.5 -46.5q-61 -44 -94 -96q-41 -63 -38 -136v-3v-1q-1 -27 15 -48
q22 -28 70 -32h440zM693 78h266v-47h-266v47zM803 185h46v-266h-46v266z" />
    <glyph glyph-name="uniE605" unicode="&#xe605;" 
d="M521 425q-71 0 -122 -51t-51 -123t51 -123t122.5 -51t122.5 51t51 123t-51 123t-123 51zM891 574h-163l-64 83q-6 7 -15 7h-265q-9 0 -15 -8l-60 -82h-176q-28 0 -48 -20t-20 -48v-504q0 -28 20 -48t48 -20h758q28 0 48 20t20 48v504q0 28 -20 48t-48 20zM521 40
q-87 0 -149 62t-62 149t62 149t149.5 62t149 -62t61.5 -149t-61.5 -149t-149.5 -62zM811 416q-12 0 -20 8t-8 19t8 19t19.5 8t19.5 -8t8 -19t-8 -19t-19 -8zM811 416z" />
    <glyph glyph-name="uniE606" unicode="&#xe606;" 
d="M512 748q-187 0 -317.5 -130.5t-130.5 -317.5t130.5 -317.5t317.5 -130.5t317.5 130.5t130.5 317.5t-130.5 317.5t-317.5 130.5zM512 -84q-158 0 -271 113t-113 271t113 271t271 113t271 -113t113 -271t-113 -271t-271 -113zM448 460h64v-294h-64v294zM448 236h224v-64
h-224v64z" />
    <glyph glyph-name="uniE607" unicode="&#xe607;" 
d="M791 -141v0q-127 -83 -279 -83t-279 83v0q-107 70 -170 183.5t-63 245.5q0 104 40.5 199t109 163.5t163.5 109t199 40.5t199 -40.5t163.5 -109t109 -163.5t40.5 -199q0 -132 -63 -245.5t-170 -183.5zM745 -115v124q0 116 -117 116h-232q-117 0 -117 -116v-124
q109 -62 233 -62t233 62zM512 753q-95 0 -181 -36.5t-148.5 -99t-99 -148.5t-36.5 -181q0 -112 49.5 -209.5t136.5 -162.5v116q0 58 41 99t98 41h280q57 0 98 -41t41 -99v-116q87 65 136.5 162.5t49.5 209.5q0 95 -36.5 181t-99 148.5t-148.5 99t-181 36.5zM512 218
q-67 0 -115 48t-48 115.5t48 115t115 47.5t115 -47.5t48 -115t-48 -115.5t-115 -48zM512 497q-48 0 -82 -34t-34 -82t34 -82t82 -34t82 34t34 82t-34 82t-82 34z" />
    <glyph glyph-name="uniE608" unicode="&#xe608;" 
d="M166 122q-33 0 -56 -23t-23 -56t23 -56t56 -23t56 23t23 56t-23 56t-56 23zM166 386q-33 0 -56 -23.5t-23 -56t23 -55.5t56 -23t56 23t23 55.5t-23 56t-56 23.5zM166 649q-33 0 -56 -23t-23 -56t23 -56t56 -23t56 23t23 56t-23 56t-56 23zM350 -9h580v105h-580v-105z
M350 254h580v105h-580v-105zM350 623v-106h580v106h-580z" />
    <glyph glyph-name="uniE609" unicode="&#xe609;" 
d="M835 9v-1q0 -12 -9 -21.5t-21 -9.5h-586q-12 0 -21 9.5t-9 21.5v1q0 4 0.5 12t5 30t12 41t24 39.5t39.5 32.5q26 13 44.5 15.5t49.5 15.5q28 12 47 21t25 12l5 4l1 61q-3 2 -7 7t-12.5 24.5t-11.5 45.5q-10 -3 -15 7.5t-5 24.5q0 1 -1 10t-1.5 15.5t0 13.5t3.5 10.5
t8 2.5q-7 51 -5 68q4 38 36 68t82 33q55 -3 84 -32t32 -69q2 -16 -5 -68q5 1 8 -2.5t3.5 -10.5t0.5 -13.5t-1 -15t-1 -10.5q-1 -14 -6 -24.5t-15 -7.5q-3 -26 -11 -45t-14 -25l-6 -6l1 -62q15 -9 77 -35q31 -14 49.5 -17t44.5 -16q23 -12 39.5 -33t24 -39.5t12 -40.5t5 -30
t0.5 -12v0zM835 9z" />
    <glyph glyph-name="uniE60A" unicode="&#xe60a;" 
d="M891 641l-379 -383l-383 379l-63 -63l447 -443l442 446z" />
    <glyph glyph-name="uniE60B" unicode="&#xe60b;" 
d="M512 880q-109 0 -202 -53.5t-147 -144.5t-54 -198q0 -59 39 -143t87.5 -154t112 -147t91.5 -107.5t46 -49.5q11 -11 27 -11h1q16 0 27 12l125 141q250 301 250 459q0 107 -54 198t-147 144.5t-202 53.5v0zM512 304q-76 0 -129.5 52.5t-53.5 127t53.5 127.5t129.5 53
t129.5 -53t53.5 -127.5t-53.5 -127t-129.5 -52.5v0zM512 304z" />
    <glyph glyph-name="uniE60C" unicode="&#xe60c;" 
d="M931 616l-70 71q-10 9 -19 0l-437 -438l-223 224q-9 9 -19 0l-70 -71q-9 -9 0 -18l302 -303q4 -3 10 -3t9 3l517 517q9 9 0 18z" />
    <glyph glyph-name="uniE60D" unicode="&#xe60d;" 
d="M139 153h223v-149h-223v149zM362 227l223 -149l-223 -149v298zM361 749l-148 -148v-299h74v223h149v149h373v-745h-224v-74h224h74v74v820h-522zM361 749z" />
    <glyph glyph-name="uniE60E" unicode="&#xe60e;" 
d="M947 5l-185 187q87 108 87 246q0 106 -52.5 196.5t-143 143t-196.5 52.5t-196.5 -52.5t-143 -143t-52.5 -196.5t52.5 -196.5t143 -143t196.5 -52.5q140 0 248 89l184 -187q12 -12 29 -12t29 12t12 29t-12 28zM147 438q0 128 91 219t219 91t219.5 -91t91.5 -219.5
t-91.5 -219.5t-219.5 -91t-219 91t-91 220zM147 438z" />
    <glyph glyph-name="uniE60F" unicode="&#xe60f;" 
d="M512 -26q8 0 14 6t6 14v489q0 9 -6 15t-14 6t-14 -6t-6 -15v-489q0 -8 6 -14t14 -6zM633.5 -26q8.5 0 14.5 5.5t7 14.5l29 488q0 8 -5.5 14.5t-14 6.5t-14.5 -5.5t-7 -13.5l-29 -489q0 -8 5.5 -14.5t14 -6.5zM858 626h-203v81q0 17 -12 29t-29 12h-204q-17 0 -29 -12
t-12 -29v-81h-203q-9 0 -15 -6t-6 -14.5t6 -14.5t15 -6h40l41 -652q5 -35 27 -58t55 -23h366q33 0 54.5 23t27.5 58l41 652h40q9 0 15 6t6 14.5t-6 14.5t-15 6zM410 707h204v-81h-204v81zM736 -67q-2 -17 -13 -28.5t-28 -11.5h-366q-17 0 -28 11.5t-13 28.5l-41 652h530z
M391 -26q8 0 13.5 6.5t5.5 14.5l-30 489q0 8 -6.5 13.5t-14.5 5.5t-14 -6.5t-6 -14.5l30 -488q1 -9 7 -14.5t15 -5.5z" />
    <glyph glyph-name="uniE610" unicode="&#xe610;" 
d="M827 616q-86 86 -201.5 116.5t-231 0t-201.5 -116.5t-116.5 -201.5t0 -230.5t116.5 -201t201.5 -116.5t231 0t201.5 116.5t116.5 201t0 230.5t-116.5 201.5zM714 141q9 -9 9 -22.5t-9.5 -23t-22.5 -9.5t-23 10l-158 158l-158 -158q-10 -10 -23 -10t-22.5 9.5t-9.5 23
t9 22.5l159 158l-159 159q-9 9 -9 22.5t9.5 22.5t22.5 9t23 -9l158 -158l158 158q10 9 23 9t22.5 -9t9.5 -22.5t-9 -22.5l-159 -159z" />
    <glyph glyph-name="uniE611" unicode="&#xe611;" 
d="M835 576l-60 63l-263 -275v0l-263 275l-60 -63l262 -276l-262 -276l60 -63l263 275v0l263 -275l60 63l-262 276z" />
    <glyph glyph-name="uniE612" unicode="&#xe612;" 
d="M513 835q-92 0 -174.5 -35.5t-142.5 -95.5t-95.5 -143t-35.5 -174t35.5 -174t95.5 -143t142.5 -95.5t174 -35.5t174.5 35.5t143 95.5t95 143t35 174t-35 174t-95 143t-143 95.5t-174 35.5zM778 522l-316 -319v0q-2 -2 -8 -5l-2 -2l-2 -1q-7 -3 -15 -3q-7 0 -14 3
q-1 0 -2 1l-2 2q-6 3 -8 5l-1 1l-156 160q-11 11 -10.5 26.5t11.5 26.5t27 11t27 -11l129 -133l288 292q11 11 26.5 11t27 -11t11.5 -27t-11 -27zM778 522z" />
    <glyph glyph-name="uniE613" unicode="&#xe613;" 
d="M951 812v-1024l-439 256l-439 -256v1024h878z" />
  </font>
</defs>
</svg>
